{
  "accessors": [
    {
      "bufferView": 2,
      "componentType": 5126,
      "count": 183,
      "max": [
        1.063169002532959,
        1.4342169761657715,
        9.32667064666748
      ],
      "min": [
        -3.43976092338562,
        -1.6016570329666138,
        6.326714992523193
      ],
      "type": "VEC3"
    },
    {
      "bufferView": 2,
      "byteOffset": 2196,
      "componentType": 5126,
      "count": 183,
      "max": [
        0.8333834409713745,
        0.9837420582771301,
        0.99994957447052
      ],
      "min": [
        -0.9981009364128113,
        -0.9837420582771301,
        -0.9999219179153442
      ],
      "type": "VEC3"
    },
    {
      "bufferView": 1,
      "componentType": 5126,
      "count": 183,
      "max": [
        0.7048619985580444,
        0.9388599991798401
      ],
      "min": [
        0.11550000309944153,
        0.002761000068858266
      ],
      "type": "VEC2"
    },
    {
      "bufferView": 0,
      "componentType": 5125,
      "count": 636,
      "type": "SCALAR"
    },
    {
      "bufferView": 2,
      "byteOffset": 4392,
      "componentType": 5126,
      "count": 324,
      "max": [
        0.6260430216789246,
        3.441232919692993,
        15.55826187133789
      ],
      "min": [
        -7.443865776062012,
        -3.580471992492676,
        6.726655006408691
      ],
      "type": "VEC3"
    },
    {
      "bufferView": 2,
      "byteOffset": 8280,
      "componentType": 5126,
      "count": 324,
      "max": [
        0.9153340458869934,
        0.9962712526321411,
        0.9990358352661133
      ],
      "min": [
        -0.9999089241027832,
        -0.9927849769592285,
        -0.9935863614082336
      ],
      "type": "VEC3"
    },
    {
      "bufferView": 1,
      "byteOffset": 1464,
      "componentType": 5126,
      "count": 324,
      "max": [
        0.3842200040817261,
        0.925590991973877
      ],
      "min": [
        0.19638299942016602,
        0.7396330237388611
      ],
      "type": "VEC2"
    },
    {
      "bufferView": 0,
      "byteOffset": 2544,
      "componentType": 5125,
      "count": 1296,
      "type": "SCALAR"
    },
    {
      "bufferView": 2,
      "byteOffset": 12168,
      "componentType": 5126,
      "count": 30,
      "max": [
        2.9444339275360107,
        0.09553200006484985,
        10.253211975097656
      ],
      "min": [
        1.9612849950790405,
        -0.25986000895500183,
        9.833769798278809
      ],
      "type": "VEC3"
    },
    {
      "bufferView": 2,
      "byteOffset": 12528,
      "componentType": 5126,
      "count": 30,
      "max": [
        0.8449562191963196,
        0.9956036806106567,
        0.9991007447242737
      ],
      "min": [
        -0.4306981563568115,
        -0.9956036806106567,
        -0.9983165860176086
      ],
      "type": "VEC3"
    },
    {
      "bufferView": 1,
      "byteOffset": 4056,
      "componentType": 5126,
      "count": 30,
      "max": [
        0.9127389788627625,
        0.311026006937027
      ],
      "min": [
        0.8454009890556335,
        0.2773579955101013
      ],
      "type": "VEC2"
    },
    {
      "bufferView": 0,
      "byteOffset": 7728,
      "componentType": 5125,
      "count": 108,
      "type": "SCALAR"
    },
    {
      "bufferView": 2,
      "byteOffset": 12888,
      "componentType": 5126,
      "count": 277,
      "max": [
        2.364003896713257,
        2.575340986251831,
        14.433558464050293
      ],
      "min": [
        -0.3684900104999542,
        -2.7253971099853516,
        9.031794548034668
      ],
      "type": "VEC3"
    },
    {
      "bufferView": 2,
      "byteOffset": 16212,
      "componentType": 5126,
      "count": 277,
      "max": [
        0.9987055063247681,
        0.9684178829193115,
        0.9635022282600403
      ],
      "min": [
        -0.26929906010627747,
        -0.9684178829193115,
        -0.9999935626983643
      ],
      "type": "VEC3"
    },
    {
      "bufferView": 1,
      "byteOffset": 4296,
      "componentType": 5126,
      "count": 277,
      "max": [
        0.8905919790267944,
        0.9747340083122253
      ],
      "min": [
        0.014782000333070755,
        0.015180000104010105
      ],
      "type": "VEC2"
    },
    {
      "bufferView": 0,
      "byteOffset": 8160,
      "componentType": 5125,
      "count": 1098,
      "type": "SCALAR"
    },
    {
      "bufferView": 2,
      "byteOffset": 19536,
      "componentType": 5126,
      "count": 30,
      "max": [
        1.5719490051269531,
        2.545027017593384,
        14.698394775390625
      ],
      "min": [
        -0.9295089840888977,
        -2.7235240936279297,
        12.22485637664795
      ],
      "type": "VEC3"
    },
    {
      "bufferView": 2,
      "byteOffset": 19896,
      "componentType": 5126,
      "count": 30,
      "max": [
        0.9153972864151001,
        0.9355443120002747,
        0.7994233965873718
      ],
      "min": [
        -0.9153972864151001,
        -0.5630165338516235,
        -0.7994233965873718
      ],
      "type": "VEC3"
    },
    {
      "bufferView": 1,
      "byteOffset": 6512,
      "componentType": 5126,
      "count": 30,
      "max": [
        0.9820280075073242,
        0.765142023563385
      ],
      "min": [
        0.07655200362205505,
        0.013964000158011913
      ],
      "type": "VEC2"
    },
    {
      "bufferView": 0,
      "byteOffset": 12552,
      "componentType": 5125,
      "count": 72,
      "type": "SCALAR"
    },
    {
      "bufferView": 2,
      "byteOffset": 20256,
      "componentType": 5126,
      "count": 126,
      "max": [
        0.3829770088195801,
        1.3700809478759766,
        7.405010223388672
      ],
      "min": [
        -0.4844360053539276,
        -1.5771620273590088,
        3.5553159713745117
      ],
      "type": "VEC3"
    },
    {
      "bufferView": 2,
      "byteOffset": 21768,
      "componentType": 5126,
      "count": 126,
      "max": [
        0.9995375275611877,
        0.9880692362785339,
        0.21201445162296295
      ],
      "min": [
        -0.9995375275611877,
        -0.9880692362785339,
        -0.15401078760623932
      ],
      "type": "VEC3"
    },
    {
      "bufferView": 1,
      "byteOffset": 6752,
      "componentType": 5126,
      "count": 126,
      "max": [
        0.4113369882106781,
        0.6263260245323181
      ],
      "min": [
        0.14338000118732452,
        0.4617469906806946
      ],
      "type": "VEC2"
    },
    {
      "bufferView": 0,
      "byteOffset": 12840,
      "componentType": 5125,
      "count": 576,
      "type": "SCALAR"
    },
    {
      "bufferView": 2,
      "byteOffset": 23280,
      "componentType": 5126,
      "count": 118,
      "max": [
        1.1657819747924805,
        2.138369083404541,
        3.8227388858795166
      ],
      "min": [
        -1.3726489543914795,
        -2.3454489707946777,
        2.4039740562438965
      ],
      "type": "VEC3"
    },
    {
      "bufferView": 2,
      "byteOffset": 24696,
      "componentType": 5126,
      "count": 118,
      "max": [
        1.0,
        1.0,
        0.9719444513320923
      ],
      "min": [
        -1.0,
        -1.0,
        -0.5111832618713379
      ],
      "type": "VEC3"
    },
    {
      "bufferView": 1,
      "byteOffset": 7760,
      "componentType": 5126,
      "count": 118,
      "max": [
        0.8452889919281006,
        0.3546859920024872
      ],
      "min": [
        0.026792999356985092,
        0.011548999696969986
      ],
      "type": "VEC2"
    },
    {
      "bufferView": 0,
      "byteOffset": 15144,
      "componentType": 5125,
      "count": 360,
      "type": "SCALAR"
    },
    {
      "bufferView": 2,
      "byteOffset": 26112,
      "componentType": 5126,
      "count": 34,
      "max": [
        1.9315470457077026,
        0.8098359704017639,
        11.314009666442871
      ],
      "min": [
        1.654099941253662,
        -1.0195159912109375,
        10.037516593933105
      ],
      "type": "VEC3"
    },
    {
      "bufferView": 2,
      "byteOffset": 26520,
      "componentType": 5126,
      "count": 34,
      "max": [
        0.999605119228363,
        0.5989278554916382,
        0.08039700984954834
      ],
      "min": [
        0.7864365577697754,
        -0.5989278554916382,
        -0.5285149812698364
      ],
      "type": "VEC3"
    },
    {
      "bufferView": 1,
      "byteOffset": 8704,
      "componentType": 5126,
      "count": 34,
      "max": [
        0.9227240085601807,
        0.43185800313949585
      ],
      "min": [
        0.8623160123825073,
        0.3189789950847626
      ],
      "type": "VEC2"
    },
    {
      "bufferView": 0,
      "byteOffset": 16584,
      "componentType": 5125,
      "count": 144,
      "type": "SCALAR"
    },
    {
      "bufferView": 2,
      "byteOffset": 26928,
      "componentType": 5126,
      "count": 432,
      "max": [
        4.499588966369629,
        2.435457944869995,
        2.8216419219970703
      ],
      "min": [
        -1.9376660585403442,
        -2.642538070678711,
        -0.0026340000331401825
      ],
      "type": "VEC3"
    },
    {
      "bufferView": 2,
      "byteOffset": 32112,
      "componentType": 5126,
      "count": 432,
      "max": [
        0.9762271046638489,
        0.9905158877372742,
        0.9998137354850769
      ],
      "min": [
        -0.9024704694747925,
        -0.9905158877372742,
        -0.6416143774986267
      ],
      "type": "VEC3"
    },
    {
      "bufferView": 1,
      "byteOffset": 8976,
      "componentType": 5126,
      "count": 432,
      "max": [
        0.7812029719352722,
        0.4543460011482239
      ],
      "min": [
        0.02068600058555603,
        0.003722999943420291
      ],
      "type": "VEC2"
    },
    {
      "bufferView": 0,
      "byteOffset": 17160,
      "componentType": 5125,
      "count": 1272,
      "type": "SCALAR"
    },
    {
      "bufferView": 2,
      "byteOffset": 37296,
      "componentType": 5126,
      "count": 32,
      "max": [
        2.2414069175720215,
        2.569775104522705,
        1.5039700269699097
      ],
      "min": [
        0.597445011138916,
        -2.753448009490967,
        0.3030720055103302
      ],
      "type": "VEC3"
    },
    {
      "bufferView": 2,
      "byteOffset": 37680,
      "componentType": 5126,
      "count": 32,
      "max": [
        0.7071282863616943,
        0.9367365837097168,
        0.7007280588150024
      ],
      "min": [
        -0.7071282863616943,
        -0.9367365837097168,
        -0.7007280588150024
      ],
      "type": "VEC3"
    },
    {
      "bufferView": 1,
      "byteOffset": 12432,
      "componentType": 5126,
      "count": 32,
      "max": [
        0.3346309959888458,
        0.10282500088214874
      ],
      "min": [
        0.21667900681495667,
        0.002099999925121665
      ],
      "type": "VEC2"
    },
    {
      "bufferView": 0,
      "byteOffset": 22248,
      "componentType": 5125,
      "count": 144,
      "type": "SCALAR"
    },
    {
      "bufferView": 2,
      "byteOffset": 38064,
      "componentType": 5126,
      "count": 118,
      "max": [
        1.275974988937378,
        4.7446417808532715,
        10.08369255065918
      ],
      "min": [
        -1.2624560594558716,
        -5.0189619064331055,
        7.615155220031738
      ],
      "type": "VEC3"
    },
    {
      "bufferView": 2,
      "byteOffset": 39480,
      "componentType": 5126,
      "count": 118,
      "max": [
        1.0,
        0.9752270579338074,
        0.9998137354850769
      ],
      "min": [
        -1.0,
        -0.9752270579338074,
        -0.9998137354850769
      ],
      "type": "VEC3"
    },
    {
      "bufferView": 1,
      "byteOffset": 12688,
      "componentType": 5126,
      "count": 118,
      "max": [
        0.8452889919281006,
        0.3546859920024872
      ],
      "min": [
        0.026792999356985092,
        0.011548999696969986
      ],
      "type": "VEC2"
    },
    {
      "bufferView": 0,
      "byteOffset": 22824,
      "componentType": 5125,
      "count": 360,
      "type": "SCALAR"
    },
    {
      "bufferView": 2,
      "byteOffset": 40896,
      "componentType": 5126,
      "count": 320,
      "max": [
        2.1752779483795166,
        7.844346046447754,
        9.459708213806152
      ],
      "min": [
        -1.7323119640350342,
        -8.118670463562012,
        6.439713001251221
      ],
      "type": "VEC3"
    },
    {
      "bufferView": 2,
      "byteOffset": 44736,
      "componentType": 5126,
      "count": 320,
      "max": [
        0.9983512163162231,
        0.9987892508506775,
        0.999500572681427
      ],
      "min": [
        -0.9835981726646423,
        -0.9987892508506775,
        -0.9742501974105835
      ],
      "type": "VEC3"
    },
    {
      "bufferView": 1,
      "byteOffset": 13632,
      "componentType": 5126,
      "count": 320,
      "max": [
        0.1622440069913864,
        0.07863499969244003
      ],
      "min": [
        0.1112700030207634,
        0.02810700051486492
      ],
      "type": "VEC2"
    },
    {
      "bufferView": 0,
      "byteOffset": 24264,
      "componentType": 5125,
      "count": 1488,
      "type": "SCALAR"
    },
    {
      "bufferView": 2,
      "byteOffset": 48576,
      "componentType": 5126,
      "count": 126,
      "max": [
        0.28739801049232483,
        3.6384639739990234,
        9.187599182128906
      ],
      "min": [
        -0.3902190029621124,
        -3.9127860069274902,
        8.50998306274414
      ],
      "type": "VEC3"
    },
    {
      "bufferView": 2,
      "byteOffset": 50088,
      "componentType": 5126,
      "count": 126,
      "max": [
        0.9994847178459167,
        0.03219940513372421,
        0.9994847178459167
      ],
      "min": [
        -0.9994847178459167,
        -0.03219940513372421,
        -0.9994879364967346
      ],
      "type": "VEC3"
    },
    {
      "bufferView": 1,
      "byteOffset": 16192,
      "componentType": 5126,
      "count": 126,
      "max": [
        0.8518499732017517,
        0.6237180233001709
      ],
      "min": [
        0.7931410074234009,
        0.4294019937515259
      ],
      "type": "VEC2"
    },
    {
      "bufferView": 0,
      "byteOffset": 30216,
      "componentType": 5125,
      "count": 576,
      "type": "SCALAR"
    }
  ],
  "asset": {
    "extras": {
      "author": "Sonicvoir (https://sketchfab.com/edieleneal22)",
      "license": "CC-BY-4.0 (http://creativecommons.org/licenses/by/4.0/)",
      "source": "https://sketchfab.com/3d-models/sonic-morden-not-rigged-b8b18384b9bf43e487c911fa196b8f8c",
      "title": "sonic (morden) (not rigged)"
    },
    "generator": "Sketchfab-11.53.2",
    "version": "2.0"
  },
  "bufferViews": [
    {
      "buffer": 0,
      "byteLength": 32520,
      "name": "floatBufferViews",
      "target": 34963
    },
    {
      "buffer": 0,
      "byteLength": 17200,
      "byteOffset": 32520,
      "byteStride": 8,
      "name": "floatBufferViews",
      "target": 34962
    },
    {
      "buffer": 0,
      "byteLength": 51600,
      "byteOffset": 49720,
      "byteStride": 12,
      "name": "floatBufferViews",
      "target": 34962
    }
  ],
  "buffers": [
    {
      "byteLength": 101320,
      "uri": "scene.bin"
    }
  ],
  "images": [
    {
      "uri": "textures/Material_baseColor.png"
    }
  ],
  "materials": [
    {
      "doubleSided": true,
      "name": "Material",
      "pbrMetallicRoughness": {
        "baseColorTexture": {
          "index": 0
        },
        "metallicFactor": 0.0,
        "roughnessFactor": 0.6
      }
    },
    {
      "doubleSided": true,
      "name": "Material.001",
      "pbrMetallicRoughness": {
        "baseColorTexture": {
          "index": 0
        },
        "metallicFactor": 0.0,
        "roughnessFactor": 0.6
      }
    },
    {
      "doubleSided": true,
      "name": "Material.002",
      "pbrMetallicRoughness": {
        "baseColorTexture": {
          "index": 0
        },
        "metallicFactor": 0.0,
        "roughnessFactor": 0.6
      }
    },
    {
      "doubleSided": true,
      "name": "Material.003",
      "pbrMetallicRoughness": {
        "baseColorTexture": {
          "index": 0
        },
        "metallicFactor": 0.0,
        "roughnessFactor": 0.6
      }
    },
    {
      "doubleSided": true,
      "name": "Material.004",
      "pbrMetallicRoughness": {
        "baseColorTexture": {
          "index": 0
        },
        "metallicFactor": 0.0,
        "roughnessFactor": 0.6
      }
    },
    {
      "doubleSided": true,
      "name": "Material.005",
      "pbrMetallicRoughness": {
        "baseColorTexture": {
          "index": 0
        },
        "metallicFactor": 0.0,
        "roughnessFactor": 0.6
      }
    },
    {
      "doubleSided": true,
      "name": "Material.006",
      "pbrMetallicRoughness": {
        "baseColorTexture": {
          "index": 0
        },
        "metallicFactor": 0.0,
        "roughnessFactor": 0.6
      }
    },
    {
      "doubleSided": true,
      "name": "Material.007",
      "pbrMetallicRoughness": {
        "baseColorTexture": {
          "index": 0
        },
        "metallicFactor": 0.0,
        "roughnessFactor": 0.6
      }
    },
    {
      "doubleSided": true,
      "name": "Material.008",
      "pbrMetallicRoughness": {
        "baseColorTexture": {
          "index": 0
        },
        "metallicFactor": 0.0,
        "roughnessFactor": 0.6
      }
    },
    {
      "doubleSided": true,
      "name": "Material.009",
      "pbrMetallicRoughness": {
        "baseColorTexture": {
          "index": 0
        },
        "metallicFactor": 0.0,
        "roughnessFactor": 0.6
      }
    },
    {
      "doubleSided": true,
      "name": "Material.010",
      "pbrMetallicRoughness": {
        "baseColorTexture": {
          "index": 0
        },
        "metallicFactor": 0.0,
        "roughnessFactor": 0.6
      }
    },
    {
      "doubleSided": true,
      "name": "Material.019",
      "pbrMetallicRoughness": {
        "baseColorTexture": {
          "index": 0
        },
        "metallicFactor": 0.0,
        "roughnessFactor": 0.6
      }
    },
    {
      "doubleSided": true,
      "name": "Material.020",
      "pbrMetallicRoughness": {
        "baseColorTexture": {
          "index": 0
        },
        "metallicFactor": 0.0,
        "roughnessFactor": 0.6
      }
    }
  ],
  "meshes": [
    {
      "name": "Object_0",
      "primitives": [
        {
          "attributes": {
            "NORMAL": 1,
            "POSITION": 0,
            "TEXCOORD_0": 2
          },
          "indices": 3,
          "material": 0,
          "mode": 4
        }
      ]
    },
    {
      "name": "Object_1",
      "primitives": [
        {
          "attributes": {
            "NORMAL": 5,
            "POSITION": 4,
            "TEXCOORD_0": 6
          },
          "indices": 7,
          "material": 3,
          "mode": 4
        }
      ]
    },
    {
      "name": "Object_2",
      "primitives": [
        {
          "attributes": {
            "NORMAL": 9,
            "POSITION": 8,
            "TEXCOORD_0": 10
          },
          "indices": 11,
          "material": 2,
          "mode": 4
        }
      ]
    },
    {
      "name": "Object_3",
      "primitives": [
        {
          "attributes": {
            "NORMAL": 13,
            "POSITION": 12,
            "TEXCOORD_0": 14
          },
          "indices": 15,
          "material": 1,
          "mode": 4
        }
      ]
    },
    {
      "name": "Object_4",
      "primitives": [
        {
          "attributes": {
            "NORMAL": 17,
            "POSITION": 16,
            "TEXCOORD_0": 18
          },
          "indices": 19,
          "material": 4,
          "mode": 4
        }
      ]
    },
    {
      "name": "Object_5",
      "primitives": [
        {
          "attributes": {
            "NORMAL": 21,
            "POSITION": 20,
            "TEXCOORD_0": 22
          },
          "indices": 23,
          "material": 6,
          "mode": 4
        }
      ]
    },
    {
      "name": "Object_6",
      "primitives": [
        {
          "attributes": {
            "NORMAL": 25,
            "POSITION": 24,
            "TEXCOORD_0": 26
          },
          "indices": 27,
          "material": 7,
          "mode": 4
        }
      ]
    },
    {
      "name": "Object_7",
      "primitives": [
        {
          "attributes": {
            "NORMAL": 29,
            "POSITION": 28,
            "TEXCOORD_0": 30
          },
          "indices": 31,
          "material": 5,
          "mode": 4
        }
      ]
    },
    {
      "name": "Object_8",
      "primitives": [
        {
          "attributes": {
            "NORMAL": 33,
            "POSITION": 32,
            "TEXCOORD_0": 34
          },
          "indices": 35,
          "material": 8,
          "mode": 4
        }
      ]
    },
    {
      "name": "Object_9",
      "primitives": [
        {
          "attributes": {
            "NORMAL": 37,
            "POSITION": 36,
            "TEXCOORD_0": 38
          },
          "indices": 39,
          "material": 9,
          "mode": 4
        }
      ]
    },
    {
      "name": "Object_10",
      "primitives": [
        {
          "attributes": {
            "NORMAL": 41,
            "POSITION": 40,
            "TEXCOORD_0": 42
          },
          "indices": 43,
          "material": 10,
          "mode": 4
        }
      ]
    },
    {
      "name": "Object_11",
      "primitives": [
        {
          "attributes": {
            "NORMAL": 45,
            "POSITION": 44,
            "TEXCOORD_0": 46
          },
          "indices": 47,
          "material": 11,
          "mode": 4
        }
      ]
    },
    {
      "name": "Object_12",
      "primitives": [
        {
          "attributes": {
            "NORMAL": 49,
            "POSITION": 48,
            "TEXCOORD_0": 50
          },
          "indices": 51,
          "material": 12,
          "mode": 4
        }
      ]
    }
  ],
  "nodes": [
    {
      "children": [
        1
      ],
      "matrix": [
        0.07940928637981415,
        0.0,
        0.0,
        0.0,
        0.0,
        1.7632403621584502e-17,
        -0.07940928637981415,
        0.0,
        0.0,
        0.07940928637981415,
        1.7632403621584502e-17,
        0.0,
        0.0,
        0.0,
        0.0,
        1.0
      ],
      "name": "Sketchfab_model"
    },
    {
      "children": [
        2,
        3,
        4,
        5,
        6,
        7,
        8,
        9,
        10,
        11,
        12,
        13,
        14
      ],
      "name": "sonmdl.obj.cleaner.materialmerger.gles"
    },
    {
      "mesh": 0,
      "name": "Object_2"
    },
    {
      "mesh": 1,
      "name": "Object_3"
    },
    {
      "mesh": 2,
      "name": "Object_4"
    },
    {
      "mesh": 3,
      "name": "Object_5"
    },
    {
      "mesh": 4,
      "name": "Object_6"
    },
    {
      "mesh": 5,
      "name": "Object_7"
    },
    {
      "mesh": 6,
      "name": "Object_8"
    },
    {
      "mesh": 7,
      "name": "Object_9"
    },
    {
      "mesh": 8,
      "name": "Object_10"
    },
    {
      "mesh": 9,
      "name": "Object_11"
    },
    {
      "mesh": 10,
      "name": "Object_12"
    },
    {
      "mesh": 11,
      "name": "Object_13"
    },
    {
      "mesh": 12,
      "name": "Object_14"
    }
  ],
  "samplers": [
    {
      "magFilter": 9729,
      "minFilter": 9987,
      "wrapS": 10497,
      "wrapT": 10497
    }
  ],
  "scene": 0,
  "scenes": [
    {
      "name": "Sketchfab_Scene",
      "nodes": [
        0
      ]
    }
  ],
  "textures": [
    {
      "sampler": 0,
      "source": 0
    }
  ]
}
